<?xml version="1.0" encoding="utf-8"?>
<!-- Generator: Adobe Illustrator 21.0.0, SVG Export Plug-In . SVG Version: 6.00 Build 0)  -->
<svg version="1.1" xmlns="http://www.w3.org/2000/svg" xmlns:xlink="http://www.w3.org/1999/xlink" x="0px" y="0px"
	 viewBox="0 0 117.4 73.7" style="enable-background:new 0 0 117.4 73.7;" xml:space="preserve">
<style type="text/css">
	.st0{display:none;}
	.st1{display:inline;fill:#FFF000;}
	.st2{display:inline;}
	.st3{fill:#647E8D;}
	.st4{font-family:'MFTongXin_Noncommercial-Regular';}
	.st5{font-size:40px;}
	.st6{fill:#637B8A;}
	.st7{font-family:'Consolas-Bold';}
	.st8{font-size:18px;}
	.st9{letter-spacing:1;}
	.st10{letter-spacing:-3;}
	.st11{fill:#595757;}
	.st12{display:inline;opacity:0.6;fill:none;stroke:#FFF000;stroke-width:5;stroke-miterlimit:10;}
	.st13{display:inline;opacity:0.7;fill:none;stroke:#F4D21E;stroke-width:4;stroke-miterlimit:10;}
	.st14{font-size:19.9582px;}
	.st15{font-size:8.9812px;}
	.st16{letter-spacing:-1;}
	.st17{fill:none;stroke:#FFDC48;stroke-width:4;stroke-miterlimit:10;}
	.st18{fill:#B3C6FF;}
	.st19{fill:none;stroke:#FFFFFF;stroke-width:4;stroke-miterlimit:10;}
	.st20{font-size:41.2645px;}
	.st21{font-size:18.569px;}
	.st22{fill:none;stroke:#FFDC48;stroke-width:6;stroke-miterlimit:10;}
</style>
<g id="图层_2" class="st0">
	<ellipse class="st1" cx="-58.2" cy="64.2" rx="4.5" ry="6.1"/>
</g>
<g id="图层_1" class="st0">
	<g class="st2">
		<text transform="matrix(1 0 0 1 -76.5451 45.4395)" class="st3 st4 st5">笑神本部</text>
	</g>
	<text transform="matrix(1 0 0 1 -54.8781 69.3696)" class="st2"><tspan x="0" y="0" class="st6 st7 st8 st9">OWARAI</tspan><tspan x="67.3" y="0" class="st6 st7 st8 st10"> </tspan><tspan x="73.7" y="0" class="st6 st7 st8 st9">CLUB</tspan></text>
</g>
<g id="图层_1_x5F_复制" class="st0">
	<g class="st2">
		<text transform="matrix(1 0 0 1 -64.5451 41.4395)" class="st11 st4 st5">笑神本部</text>
	</g>
	<text transform="matrix(1 0 0 1 -42.8781 64.3696)" class="st2"><tspan x="0" y="0" class="st11 st7 st8 st9">OWARAI</tspan><tspan x="67.3" y="0" class="st11 st7 st8 st10"> </tspan><tspan x="73.7" y="0" class="st11 st7 st8 st9">CLUB</tspan></text>
</g>
<g id="图层_3" class="st0">
	<path class="st12" d="M-66,61.8H72.7H-66z"/>
</g>
<g id="图层_3_x5F_复制" class="st0">
	<polyline class="st13" points="-71.6,59.2 -82.4,59.2 -82.4,19.3 -71.5,19.3 	"/>
	<polyline class="st13" points="103.2,59.2 113.7,59.2 113.7,19.3 103.1,19.3 	"/>
</g>
<g id="_x33_0" class="st0">
	<g class="st2">
		<g>
			<text transform="matrix(1 0 0 1 -3.809 42.6727)" class="st11 st4 st14">笑神本部</text>
		</g>
		<text transform="matrix(1 0 0 1 7.002 54.1141)"><tspan x="0" y="0" class="st11 st7 st15">OWARAI</tspan><tspan x="33.6" y="0" class="st11 st7 st15 st16"> </tspan><tspan x="36.8" y="0" class="st11 st7 st15">CLUB</tspan></text>
		<polyline class="st17" points="-7.3,51.5 -12.7,51.5 -12.7,31.6 -7.3,31.6 		"/>
		<polyline class="st17" points="79.9,51.5 85.1,51.5 85.1,31.6 79.8,31.6 		"/>
	</g>
</g>
<g id="_x33_0_x5F_复制_x5F_2" class="st0">
	<g class="st2">
		<g>
			<g>
				<path class="st11" d="M25.1,22.2L24.8,23l4.4-0.4l0.3,2.2l-5.2,0.1l-0.7,2.6l-3-0.8l1.9-4.9L25.1,22.2z M36.1,27.8l0.5,2.4
					l-6.1,0.2l-0.9,1.8l8.2-0.4l0.3,2.5l-4.3,0l1.4,2.5l1.7,0l-0.1,2.5l-3.2,0c-0.3-0.2-0.6-0.5-0.9-0.9c-0.3-0.4-0.6-0.9-0.9-1.4
					c-0.3-0.5-0.6-1-0.8-1.5c-0.2-0.5-0.4-0.9-0.6-1.2l-2.1,0c-0.7,1.3-1.4,2.4-2,3.2c-0.6,0.8-1.2,1.3-1.7,1.7
					c-0.5,0.3-1.1,0.5-1.6,0.4c-0.5-0.1-1-0.3-1.6-0.6v-2.3l1.8,0.2l1.5-2.6l-3.7,0l-0.3-1.8l5.1-0.2l1.1-1.9l-4.6,0.1l0-1.9
					L36.1,27.8z M27.8,25.5l-0.1,1.8l-2.5-0.1l0.1-1.7L27.8,25.5z M33.7,22.3l-0.2,0.6l4.3-0.4l0.1,2.4h-5l-0.7,2.4l-3-0.8l1.9-4.7
					L33.7,22.3z M36.9,25.4l-0.1,1.9l-2.8,0l-0.1-1.9H36.9z"/>
				<path class="st11" d="M44,21.7v2h1.7c-0.1,0.3-0.1,0.7-0.3,1.1c-0.1,0.4-0.2,0.8-0.4,1.3c-0.1,0.4-0.3,0.9-0.5,1.3
					c-0.2,0.4-0.4,0.9-0.6,1.3l2.1,0V31l-1.7,0l0.1,8.6l-2.7,0l-0.1-7.5c-0.4,0.3-0.7,0.5-1.1,0.6c-0.4,0.1-0.7,0-1.1-0.2v-2.9
					l1.6,0.2l1.5-4.2l-3.1,0.1v-1.9h1.7l0-1.8L44,21.7z M50.8,39.5l0-4.3l-4-0.1l0-10.3l4-0.1v-2.6l2.8-0.1v2.6l4-0.1l-0.3,7.7
					c0,0.6-0.1,1.1-0.3,1.5c-0.2,0.4-0.4,0.7-0.7,1c-0.3,0.2-0.6,0.4-1,0.5c-0.4,0.1-0.7,0.1-1,0.1l-0.6,0l0,4.1L50.8,39.5z
					 M49.4,26.7c0,0.2,0,0.4,0,0.7c0,0.2,0,0.5,0,0.7c0,0.3,0,0.6,0,0.9l1.4-0.1v-2.2H49.4z M50.8,33v-2.2l-1.4,0c0,0.3,0,0.6,0,0.9
					c0,0.3,0,0.5,0,0.7c0,0.2,0,0.4,0,0.5c0,0.1,0,0.2,0,0.2H50.8z M53.5,26.7v2.1l1.5-0.1l0-2H53.5z M53.5,33c0.2,0,0.4,0,0.6,0
					c0.2,0,0.3,0,0.5,0H55v-2.2l-1.5,0V33z"/>
				<path class="st11" d="M66,22.3l3.3,0.1l0,3.1l7-0.2v2.6l-2.8,0L75,35h1.5l-0.2,2.6l-3.8-0.1c-0.2-0.6-0.4-1.3-0.6-2.1
					s-0.4-1.6-0.6-2.4c-0.2-0.8-0.4-1.7-0.5-2.6c-0.2-0.9-0.3-1.8-0.4-2.7l-1.1,0l0,7.1l1.8-0.1l0,2.5l-1.8-0.1v2.4h-3l0-2.5
					l-1.7-0.1l0.1-2l1.6-0.1l-0.1-7.2h-0.8c-0.2,1.7-0.4,3.2-0.7,4.5c-0.2,1.2-0.5,2.2-0.8,3.1c-0.3,0.8-0.6,1.4-0.9,1.9
					c-0.3,0.4-0.6,0.7-1,0.9c-0.3,0.2-0.7,0.2-1.1,0.1c-0.4-0.1-0.8-0.2-1.3-0.4v-2.6l1.4,0.1l1.2-7.4l-2.3,0l-0.1-2l6.3-0.2
					L66,22.3z"/>
				<path class="st11" d="M88.2,29.3l0.2,2.3H78.3l-0.1-2.1L88.2,29.3z M84.5,22.1v1.5l3.5-0.1l0.1,2.1l-9.4,0.1l0-2l3.2-0.1v-1.4
					L84.5,22.1z M87.8,32.9l-0.3,3.9c0,0.5-0.1,1-0.3,1.3c-0.2,0.4-0.5,0.7-0.8,0.9c-0.3,0.2-0.7,0.4-1,0.5s-0.8,0.1-1.2,0.1
					l-3.6-0.1c-0.4,0-0.8-0.2-1-0.4c-0.2-0.2-0.4-0.5-0.6-0.7c-0.1-0.3-0.2-0.7-0.3-1l-0.1-4.5L87.8,32.9z M81.8,26.6v2h-2.4v-2
					H81.8z M81.6,34.6l0.1,2.6c0.1,0,0.2,0,0.6,0c0.3,0,0.7,0,1,0c0.4,0,0.9,0,1.4,0l0-2.6H81.6z M86.9,26.2l0.1,2.4h-2.7l0-2.3
					L86.9,26.2z M93.8,24.5h-1.9v15.3l-3,0l0.2-17.4l6.9-0.2l0.1,2.7L95,30.2l1.2,4.7l-1.1,3l-2.6-0.7l1.1-2.5l-1-4.4L93.8,24.5z"/>
			</g>
		</g>
		<g>
			<path class="st11" d="M34.7,44.9c0,0.5-0.1,0.9-0.2,1.3c-0.1,0.4-0.3,0.7-0.5,0.9c-0.2,0.2-0.4,0.4-0.7,0.5
				c-0.3,0.1-0.6,0.2-0.9,0.2c-0.7,0-1.3-0.2-1.6-0.7c-0.4-0.5-0.6-1.2-0.6-2.1c0-0.5,0.1-0.9,0.2-1.3c0.1-0.4,0.3-0.7,0.5-0.9
				c0.2-0.2,0.4-0.4,0.7-0.5c0.3-0.1,0.6-0.2,0.9-0.2c0.7,0,1.3,0.2,1.6,0.7S34.7,44,34.7,44.9z M33.6,44.9c0-0.7-0.1-1.1-0.3-1.5
				S32.9,43,32.5,43c-0.2,0-0.4,0-0.5,0.1c-0.1,0.1-0.3,0.2-0.3,0.4c-0.1,0.2-0.2,0.4-0.2,0.6s-0.1,0.5-0.1,0.8
				c0,0.7,0.1,1.1,0.3,1.5c0.2,0.3,0.5,0.5,0.9,0.5c0.2,0,0.4,0,0.5-0.1c0.1-0.1,0.3-0.2,0.4-0.4s0.2-0.4,0.2-0.6
				C33.6,45.5,33.6,45.2,33.6,44.9z"/>
			<path class="st11" d="M39.9,47.7h-1.2L38.1,46l-0.2-0.7L37.7,46l-0.5,1.7H36l-0.3-5.5h0.9l0.1,3.6l0,1l0.3-0.9l0.6-2h0.7l0.6,2.1
				l0.2,0.7l0-0.9l0.1-3.7h0.9L39.9,47.7z"/>
			<path class="st11" d="M44.6,47.7l-0.3-1.1h-1.9L42,47.7h-1l1.6-5.5h1.5l1.6,5.5H44.6z M43.3,43.1l-0.7,2.6H44L43.3,43.1z"/>
			<path class="st11" d="M49.7,47.7l-0.8-1.8c-0.1-0.2-0.2-0.3-0.3-0.4s-0.3-0.1-0.5-0.1H48v2.3h-1v-5.5h1.6c0.3,0,0.6,0,0.8,0.1
				c0.2,0.1,0.5,0.1,0.6,0.3c0.2,0.1,0.3,0.3,0.4,0.5s0.1,0.4,0.1,0.7c0,0.2,0,0.4-0.1,0.5c-0.1,0.2-0.1,0.3-0.3,0.4
				c-0.1,0.1-0.2,0.2-0.4,0.3S49.5,45,49.3,45c0.1,0,0.3,0.1,0.4,0.2c0.1,0.1,0.2,0.3,0.3,0.5l0.9,1.9H49.7z M49.4,43.8
				c0-0.3-0.1-0.5-0.3-0.6C49,43.1,48.8,43,48.4,43H48v1.6h0.4c0.2,0,0.3,0,0.4-0.1c0.1,0,0.2-0.1,0.3-0.2c0.1-0.1,0.2-0.2,0.2-0.3
				C49.4,44,49.4,43.9,49.4,43.8z"/>
			<path class="st11" d="M55.4,47.7l-0.3-1.1h-1.9l-0.3,1.1h-1l1.6-5.5h1.5l1.6,5.5H55.4z M54.1,43.1l-0.7,2.6h1.5L54.1,43.1z"/>
			<path class="st11" d="M57.8,43v-0.9h3.5V43h-1.2v3.8h1.2v0.9h-3.5v-0.9H59V43H57.8z"/>
			<path class="st11" d="M70,47.5c-0.2,0.1-0.5,0.2-0.7,0.2s-0.5,0.1-0.7,0.1c-0.4,0-0.8-0.1-1.1-0.2c-0.3-0.1-0.6-0.3-0.8-0.5
				c-0.2-0.2-0.4-0.5-0.5-0.9s-0.2-0.7-0.2-1.2c0-0.5,0.1-0.9,0.2-1.2c0.1-0.4,0.3-0.7,0.5-0.9s0.5-0.4,0.8-0.6
				c0.3-0.1,0.7-0.2,1.1-0.2c0.1,0,0.2,0,0.4,0s0.2,0,0.3,0c0.1,0,0.2,0,0.3,0.1c0.1,0,0.2,0.1,0.3,0.1v1c-0.2-0.1-0.5-0.2-0.7-0.2
				S68.9,43,68.7,43c-0.3,0-0.5,0-0.7,0.1s-0.3,0.2-0.5,0.4s-0.2,0.4-0.3,0.6s-0.1,0.5-0.1,0.8c0,0.3,0,0.6,0.1,0.8
				c0.1,0.2,0.1,0.4,0.3,0.6s0.3,0.3,0.5,0.4c0.2,0.1,0.4,0.1,0.7,0.1c0.1,0,0.2,0,0.3,0c0.1,0,0.2,0,0.3-0.1c0.1,0,0.2-0.1,0.3-0.1
				s0.2-0.1,0.3-0.1V47.5z"/>
			<path class="st11" d="M72,47.7v-5.5H73v4.6h2.3v0.9H72z"/>
			<path class="st11" d="M80.9,45.6c0,0.4,0,0.7-0.1,0.9c-0.1,0.3-0.2,0.5-0.4,0.7c-0.2,0.2-0.4,0.3-0.6,0.4
				c-0.3,0.1-0.5,0.1-0.9,0.1c-0.4,0-0.7,0-0.9-0.1c-0.3-0.1-0.5-0.2-0.6-0.4c-0.2-0.2-0.3-0.4-0.3-0.6s-0.1-0.5-0.1-0.8v-3.7h1v3.6
				c0,0.2,0,0.4,0,0.5c0,0.1,0.1,0.3,0.2,0.4s0.2,0.2,0.3,0.2c0.1,0.1,0.3,0.1,0.5,0.1c0.2,0,0.3,0,0.4-0.1c0.1,0,0.2-0.1,0.3-0.2
				c0.1-0.1,0.1-0.2,0.2-0.4c0-0.2,0.1-0.3,0.1-0.6v-3.6h1V45.6z"/>
			<path class="st11" d="M82.5,47.7v-5.5h1.8c0.6,0,1.1,0.1,1.4,0.3s0.5,0.6,0.5,1c0,0.1,0,0.3,0,0.4c0,0.1-0.1,0.3-0.2,0.4
				s-0.2,0.2-0.3,0.3c-0.1,0.1-0.2,0.2-0.4,0.2c0.1,0,0.3,0.1,0.4,0.1c0.1,0.1,0.2,0.2,0.3,0.3s0.2,0.2,0.2,0.4
				c0.1,0.1,0.1,0.3,0.1,0.5c0,0.6-0.2,1-0.6,1.3s-0.9,0.4-1.6,0.4H82.5z M85.1,43.6c0-0.1,0-0.2-0.1-0.3c0-0.1-0.1-0.2-0.2-0.2
				c-0.1-0.1-0.2-0.1-0.3-0.1c-0.1,0-0.3,0-0.4,0h-0.6v1.5h0.6c0.2,0,0.3,0,0.4-0.1c0.1,0,0.2-0.1,0.3-0.2C85,44.1,85,44,85,43.9
				C85.1,43.9,85.1,43.8,85.1,43.6z M84.3,46.8c0.2,0,0.3,0,0.4-0.1c0.1,0,0.2-0.1,0.3-0.2s0.1-0.2,0.2-0.3c0-0.1,0.1-0.2,0.1-0.3
				c0-0.2-0.1-0.4-0.3-0.6s-0.5-0.2-0.8-0.2h-0.6v1.6H84.3z"/>
		</g>
		<polyline class="st17" points="16.3,45.2 11.1,45.2 11.1,26 16.4,26 		"/>
		<polyline class="st17" points="100.7,45.2 105.7,45.2 105.7,26 100.6,26 		"/>
	</g>
</g>
<g id="_x33_0_x5F_复制2_x5F_2">
	<g>
		<g>
			<g>
				<path class="st18" d="M25.1,22.2L24.8,23l4.4-0.4l0.3,2.2l-5.2,0.1l-0.7,2.6l-3-0.8l1.9-4.9L25.1,22.2z M36.1,27.8l0.5,2.4
					l-6.1,0.2l-0.9,1.8l8.2-0.4l0.3,2.5l-4.3,0l1.4,2.5l1.7,0l-0.1,2.5l-3.2,0c-0.3-0.2-0.6-0.5-0.9-0.9c-0.3-0.4-0.6-0.9-0.9-1.4
					c-0.3-0.5-0.6-1-0.8-1.5c-0.2-0.5-0.4-0.9-0.6-1.2l-2.1,0c-0.7,1.3-1.4,2.4-2,3.2c-0.6,0.8-1.2,1.3-1.7,1.7
					c-0.5,0.3-1.1,0.5-1.6,0.4c-0.5-0.1-1-0.3-1.6-0.6v-2.3l1.8,0.2l1.5-2.6l-3.7,0l-0.3-1.8l5.1-0.2l1.1-1.9l-4.6,0.1l0-1.9
					L36.1,27.8z M27.8,25.5l-0.1,1.8l-2.5-0.1l0.1-1.7L27.8,25.5z M33.7,22.3l-0.2,0.6l4.3-0.4l0.1,2.4h-5l-0.7,2.4l-3-0.8l1.9-4.7
					L33.7,22.3z M36.9,25.4l-0.1,1.9l-2.8,0l-0.1-1.9H36.9z"/>
				<path class="st18" d="M44,21.7v2h1.7c-0.1,0.3-0.1,0.7-0.3,1.1c-0.1,0.4-0.2,0.8-0.4,1.3c-0.1,0.4-0.3,0.9-0.5,1.3
					c-0.2,0.4-0.4,0.9-0.6,1.3l2.1,0V31l-1.7,0l0.1,8.6l-2.7,0l-0.1-7.5c-0.4,0.3-0.7,0.5-1.1,0.6c-0.4,0.1-0.7,0-1.1-0.2v-2.9
					l1.6,0.2l1.5-4.2l-3.1,0.1v-1.9h1.7l0-1.8L44,21.7z M50.8,39.5l0-4.3l-4-0.1l0-10.3l4-0.1v-2.6l2.8-0.1v2.6l4-0.1l-0.3,7.7
					c0,0.6-0.1,1.1-0.3,1.5c-0.2,0.4-0.4,0.7-0.7,1c-0.3,0.2-0.6,0.4-1,0.5c-0.4,0.1-0.7,0.1-1,0.1l-0.6,0l0,4.1L50.8,39.5z
					 M49.4,26.7c0,0.2,0,0.4,0,0.7c0,0.2,0,0.5,0,0.7c0,0.3,0,0.6,0,0.9l1.4-0.1v-2.2H49.4z M50.8,33v-2.2l-1.4,0c0,0.3,0,0.6,0,0.9
					c0,0.3,0,0.5,0,0.7c0,0.2,0,0.4,0,0.5c0,0.1,0,0.2,0,0.2H50.8z M53.5,26.7v2.1l1.5-0.1l0-2H53.5z M53.5,33c0.2,0,0.4,0,0.6,0
					c0.2,0,0.3,0,0.5,0H55v-2.2l-1.5,0V33z"/>
				<path class="st18" d="M66,22.3l3.3,0.1l0,3.1l7-0.2v2.6l-2.8,0L75,35h1.5l-0.2,2.6l-3.8-0.1c-0.2-0.6-0.4-1.3-0.6-2.1
					s-0.4-1.6-0.6-2.4c-0.2-0.8-0.4-1.7-0.5-2.6c-0.2-0.9-0.3-1.8-0.4-2.7l-1.1,0l0,7.1l1.8-0.1l0,2.5l-1.8-0.1v2.4h-3l0-2.5
					l-1.7-0.1l0.1-2l1.6-0.1l-0.1-7.2h-0.8c-0.2,1.7-0.4,3.2-0.7,4.5c-0.2,1.2-0.5,2.2-0.8,3.1c-0.3,0.8-0.6,1.4-0.9,1.9
					c-0.3,0.4-0.6,0.7-1,0.9c-0.3,0.2-0.7,0.2-1.1,0.1c-0.4-0.1-0.8-0.2-1.3-0.4v-2.6l1.4,0.1l1.2-7.4l-2.3,0l-0.1-2l6.3-0.2
					L66,22.3z"/>
				<path class="st18" d="M88.2,29.3l0.2,2.3H78.3l-0.1-2.1L88.2,29.3z M84.5,22.1v1.5l3.5-0.1l0.1,2.1l-9.4,0.1l0-2l3.2-0.1v-1.4
					L84.5,22.1z M87.8,32.9l-0.3,3.9c0,0.5-0.1,1-0.3,1.3c-0.2,0.4-0.5,0.7-0.8,0.9c-0.3,0.2-0.7,0.4-1,0.5s-0.8,0.1-1.2,0.1
					l-3.6-0.1c-0.4,0-0.8-0.2-1-0.4c-0.2-0.2-0.4-0.5-0.6-0.7c-0.1-0.3-0.2-0.7-0.3-1l-0.1-4.5L87.8,32.9z M81.8,26.6v2h-2.4v-2
					H81.8z M81.6,34.6l0.1,2.6c0.1,0,0.2,0,0.6,0c0.3,0,0.7,0,1,0c0.4,0,0.9,0,1.4,0l0-2.6H81.6z M86.9,26.2l0.1,2.4h-2.7l0-2.3
					L86.9,26.2z M93.8,24.5h-1.9v15.3l-3,0l0.2-17.4l6.9-0.2l0.1,2.7L95,30.2l1.2,4.7l-1.1,3l-2.6-0.7l1.1-2.5l-1-4.4L93.8,24.5z"/>
			</g>
		</g>
		<g>
			<path class="st18" d="M34.7,44.9c0,0.5-0.1,0.9-0.2,1.3c-0.1,0.4-0.3,0.7-0.5,0.9c-0.2,0.2-0.4,0.4-0.7,0.5
				c-0.3,0.1-0.6,0.2-0.9,0.2c-0.7,0-1.3-0.2-1.6-0.7c-0.4-0.5-0.6-1.2-0.6-2.1c0-0.5,0.1-0.9,0.2-1.3c0.1-0.4,0.3-0.7,0.5-0.9
				c0.2-0.2,0.4-0.4,0.7-0.5c0.3-0.1,0.6-0.2,0.9-0.2c0.7,0,1.3,0.2,1.6,0.7S34.7,44,34.7,44.9z M33.6,44.9c0-0.7-0.1-1.1-0.3-1.5
				S32.9,43,32.5,43c-0.2,0-0.4,0-0.5,0.1c-0.1,0.1-0.3,0.2-0.3,0.4c-0.1,0.2-0.2,0.4-0.2,0.6s-0.1,0.5-0.1,0.8
				c0,0.7,0.1,1.1,0.3,1.5c0.2,0.3,0.5,0.5,0.9,0.5c0.2,0,0.4,0,0.5-0.1c0.1-0.1,0.3-0.2,0.4-0.4s0.2-0.4,0.2-0.6
				C33.6,45.5,33.6,45.2,33.6,44.9z"/>
			<path class="st18" d="M39.9,47.7h-1.2L38.1,46l-0.2-0.7L37.7,46l-0.5,1.7H36l-0.3-5.5h0.9l0.1,3.6l0,1l0.3-0.9l0.6-2h0.7l0.6,2.1
				l0.2,0.7l0-0.9l0.1-3.7h0.9L39.9,47.7z"/>
			<path class="st18" d="M44.6,47.7l-0.3-1.1h-1.9L42,47.7h-1l1.6-5.5h1.5l1.6,5.5H44.6z M43.3,43.1l-0.7,2.6H44L43.3,43.1z"/>
			<path class="st18" d="M49.7,47.7l-0.8-1.8c-0.1-0.2-0.2-0.3-0.3-0.4s-0.3-0.1-0.5-0.1H48v2.3h-1v-5.5h1.6c0.3,0,0.6,0,0.8,0.1
				c0.2,0.1,0.5,0.1,0.6,0.3c0.2,0.1,0.3,0.3,0.4,0.5s0.1,0.4,0.1,0.7c0,0.2,0,0.4-0.1,0.5c-0.1,0.2-0.1,0.3-0.3,0.4
				c-0.1,0.1-0.2,0.2-0.4,0.3S49.5,45,49.3,45c0.1,0,0.3,0.1,0.4,0.2c0.1,0.1,0.2,0.3,0.3,0.5l0.9,1.9H49.7z M49.4,43.8
				c0-0.3-0.1-0.5-0.3-0.6C49,43.1,48.8,43,48.4,43H48v1.6h0.4c0.2,0,0.3,0,0.4-0.1c0.1,0,0.2-0.1,0.3-0.2c0.1-0.1,0.2-0.2,0.2-0.3
				C49.4,44,49.4,43.9,49.4,43.8z"/>
			<path class="st18" d="M55.4,47.7l-0.3-1.1h-1.9l-0.3,1.1h-1l1.6-5.5h1.5l1.6,5.5H55.4z M54.1,43.1l-0.7,2.6h1.5L54.1,43.1z"/>
			<path class="st18" d="M57.8,43v-0.9h3.5V43h-1.2v3.8h1.2v0.9h-3.5v-0.9H59V43H57.8z"/>
			<path class="st18" d="M70,47.5c-0.2,0.1-0.5,0.2-0.7,0.2s-0.5,0.1-0.7,0.1c-0.4,0-0.8-0.1-1.1-0.2c-0.3-0.1-0.6-0.3-0.8-0.5
				c-0.2-0.2-0.4-0.5-0.5-0.9s-0.2-0.7-0.2-1.2c0-0.5,0.1-0.9,0.2-1.2c0.1-0.4,0.3-0.7,0.5-0.9s0.5-0.4,0.8-0.6
				c0.3-0.1,0.7-0.2,1.1-0.2c0.1,0,0.2,0,0.4,0s0.2,0,0.3,0c0.1,0,0.2,0,0.3,0.1c0.1,0,0.2,0.1,0.3,0.1v1c-0.2-0.1-0.5-0.2-0.7-0.2
				S68.9,43,68.7,43c-0.3,0-0.5,0-0.7,0.1s-0.3,0.2-0.5,0.4s-0.2,0.4-0.3,0.6s-0.1,0.5-0.1,0.8c0,0.3,0,0.6,0.1,0.8
				c0.1,0.2,0.1,0.4,0.3,0.6s0.3,0.3,0.5,0.4c0.2,0.1,0.4,0.1,0.7,0.1c0.1,0,0.2,0,0.3,0c0.1,0,0.2,0,0.3-0.1c0.1,0,0.2-0.1,0.3-0.1
				s0.2-0.1,0.3-0.1V47.5z"/>
			<path class="st18" d="M72,47.7v-5.5H73v4.6h2.3v0.9H72z"/>
			<path class="st18" d="M80.9,45.6c0,0.4,0,0.7-0.1,0.9c-0.1,0.3-0.2,0.5-0.4,0.7c-0.2,0.2-0.4,0.3-0.6,0.4
				c-0.3,0.1-0.5,0.1-0.9,0.1c-0.4,0-0.7,0-0.9-0.1c-0.3-0.1-0.5-0.2-0.6-0.4c-0.2-0.2-0.3-0.4-0.3-0.6s-0.1-0.5-0.1-0.8v-3.7h1v3.6
				c0,0.2,0,0.4,0,0.5c0,0.1,0.1,0.3,0.2,0.4s0.2,0.2,0.3,0.2c0.1,0.1,0.3,0.1,0.5,0.1c0.2,0,0.3,0,0.4-0.1c0.1,0,0.2-0.1,0.3-0.2
				c0.1-0.1,0.1-0.2,0.2-0.4c0-0.2,0.1-0.3,0.1-0.6v-3.6h1V45.6z"/>
			<path class="st18" d="M82.5,47.7v-5.5h1.8c0.6,0,1.1,0.1,1.4,0.3s0.5,0.6,0.5,1c0,0.1,0,0.3,0,0.4c0,0.1-0.1,0.3-0.2,0.4
				s-0.2,0.2-0.3,0.3c-0.1,0.1-0.2,0.2-0.4,0.2c0.1,0,0.3,0.1,0.4,0.1c0.1,0.1,0.2,0.2,0.3,0.3s0.2,0.2,0.2,0.4
				c0.1,0.1,0.1,0.3,0.1,0.5c0,0.6-0.2,1-0.6,1.3s-0.9,0.4-1.6,0.4H82.5z M85.1,43.6c0-0.1,0-0.2-0.1-0.3c0-0.1-0.1-0.2-0.2-0.2
				c-0.1-0.1-0.2-0.1-0.3-0.1c-0.1,0-0.3,0-0.4,0h-0.6v1.5h0.6c0.2,0,0.3,0,0.4-0.1c0.1,0,0.2-0.1,0.3-0.2C85,44.1,85,44,85,43.9
				C85.1,43.9,85.1,43.8,85.1,43.6z M84.3,46.8c0.2,0,0.3,0,0.4-0.1c0.1,0,0.2-0.1,0.3-0.2s0.1-0.2,0.2-0.3c0-0.1,0.1-0.2,0.1-0.3
				c0-0.2-0.1-0.4-0.3-0.6s-0.5-0.2-0.8-0.2h-0.6v1.6H84.3z"/>
		</g>
		<polyline class="st19" points="16.3,45.2 11.1,45.2 11.1,26 16.4,26 		"/>
		<polyline class="st19" points="100.7,45.2 105.7,45.2 105.7,26 100.6,26 		"/>
	</g>
</g>
<g id="_x33_0_x5F_复制" class="st0">
	<g class="st2">
		<g>
			<text transform="matrix(1 0 0 1 -53.5082 38.9802)" class="st11 st4 st20">笑神本部</text>
		</g>
		<text transform="matrix(1 0 0 1 -31.1547 62.6344)"><tspan x="0" y="0" class="st11 st7 st21 st9">OWARAI</tspan><tspan x="69.4" y="0" class="st11 st7 st21 st10"> </tspan><tspan x="76.1" y="0" class="st11 st7 st21 st9">CLUB</tspan></text>
		<polyline class="st22" points="-60.7,57.3 -71.9,57.3 -71.9,16.2 -60.6,16.2 		"/>
		<polyline class="st22" points="119.5,57.3 130.4,57.3 130.4,16.2 119.4,16.2 		"/>
	</g>
</g>
</svg>
